<svg xmlns="http://www.w3.org/2000/svg" width="22" height="22" viewBox="0 0 22 22">
    <path fill="#4D4C4C" fill-rule="evenodd" d="M3.479 11.016l-.003.314H2.64v1.456c0 .133-.179.24-.312.24-.134 0-.315-.107-.315-.24v-1.457H1.33v.839c0 .133-.023.24-.158.24-.134 0-.157-.107-.157-.24v-.839H.243c-.135 0-.243-.023-.243-.157 0-.132.108-.156.243-.156h.772v-.738c0-.134.023-.242.157-.242s.158.108.158.242v.737h.68V9.644c0-.133.18-.241.315-.241s.315.108.315.24v1.373h.839zM11.047 3c.54-.003.988.422 1.012.962a.958.958 0 0 1-.685.93v3.007h-.386v-3c-.773-.107-.821-.481-.821-.931-.002-.024-.004-.047-.004-.07A.89.89 0 0 1 11.047 3zm10.71 8.017c.134 0 .242.023.242.156 0 .135-.109.157-.243.157h-.615v.839c0 .133-.182.24-.317.24-.134 0-.315-.107-.315-.24v-.839h-.68v1.456c0 .134-.026.242-.16.242-.133 0-.157-.108-.157-.242V11.33h-.991v-.313h.993V9.644c0-.133.024-.241.157-.241.134 0 .158.108.158.24v1.374h.68v-.74c0-.132.181-.24.316-.24s.317.108.317.24v.74h.615zm-18.11-2.35h14.69v4.697c0 3.034-3.307 5.674-7.337 5.674h-.184c-3.875 0-7.168-2.543-7.168-5.463V8.667zm10.645 6.124a2.011 2.011 0 0 0 2.014-2.002 2.004 2.004 0 1 0-2.014 2.002zm-6.936.776a2.79 2.79 0 0 0 2.795-2.778 2.78 2.78 0 0 0-2.763-2.781 2.78 2.78 0 0 0-.032 5.559zm6.936-1.664h.004-.014a1.127 1.127 0 1 1 1.136-1.115 1.121 1.121 0 0 0-.001.01 1.115 1.115 0 0 1-1.125 1.105zm-6.936-3.007a1.9 1.9 0 0 1 1.903 1.892 1.891 1.891 0 0 1-3.784.012 1.892 1.892 0 0 1 1.88-1.904z"/>
</svg>
